<svg xmlns="http://www.w3.org/2000/svg" width="100" height="78" viewBox="0 0 100 78" fill="none">
  <path d="M77.7254 33.6244C77.1437 34.2231 76.5655 34.8245 75.9945 35.4228V64.3117C75.9945 66.7864 73.5473 68.8004 70.5403 68.8004H16.3625C13.3517 68.8004 10.9083 66.7864 10.9083 64.3117V19.7246C10.9083 17.2468 13.3517 15.236 16.3625 15.236H67.5115C69.5549 13.2252 71.4495 11.3817 73.4419 9.54129L75.1436 7.94641L76.1253 7.06661C74.3837 6.54308 72.5001 6.25876 70.5403 6.25876H16.3625C7.33767 6.25876 0 12.2975 0 19.7246V64.3117C0 71.7358 7.33767 77.7776 16.3625 77.7776H70.5407C79.5617 77.7776 86.9032 71.7361 86.9032 64.3117V24.5036C84.063 27.2118 81.0817 30.1772 77.7254 33.6244Z" fill="#27A5EF"/>
  <path d="M99.2169 2.25516C97.6421 0.0692223 94.2125 -0.65185 91.5564 0.644185C90.0694 1.36967 88.6882 2.19804 87.3446 3.06206C86.6655 3.49029 86.0409 3.95448 85.4074 4.41616C84.7785 4.88099 84.162 5.35592 83.5508 5.83621C82.3157 6.78986 81.2075 7.82775 80.0644 8.84388L78.36 10.3744L76.6993 11.9289C74.4669 13.9917 72.3188 16.1007 70.1753 18.2118L67.0069 21.4038L63.9213 24.6421C59.8467 28.9812 55.8792 33.3742 52.0827 37.8612C50.175 40.0992 48.3065 42.3581 46.4529 44.6257C45.7719 45.4733 45.0974 46.3247 44.4225 47.1758C42.9696 46.1802 41.6605 45.076 40.4811 43.8434C38.0811 41.3665 36.2098 38.3368 34.6519 35.0539L34.6166 34.9795C33.5759 32.8008 30.6456 31.6288 27.8936 32.3464C25.0212 33.0952 23.4302 35.6185 24.3402 37.9824C25.0998 39.9563 25.979 41.9387 27.0814 43.8949C28.1858 45.8473 29.5029 47.7808 31.0881 49.6101C32.6748 51.4357 34.5261 53.1482 36.5576 54.6642C38.5853 56.1865 40.7874 57.5021 43.0321 58.6369C45.77 60.0159 49.3828 59.4018 51.208 57.1944L51.3181 57.0613C53.1333 54.8659 54.9953 52.6878 56.865 50.5164C58.7374 48.3453 60.6236 46.1827 62.5466 44.0429C66.3976 39.7669 70.2915 35.5229 74.32 31.3811C78.3504 27.2399 82.4541 23.1649 86.7176 19.2346L88.3117 17.7568L89.9382 16.3118C91.0265 15.3525 92.1005 14.377 93.1715 13.413C94.2371 12.4432 95.2459 11.4199 96.244 10.3962C97.2441 9.37466 98.2061 8.31751 99.0628 7.15749L99.1905 6.98645C100.223 5.58155 100.306 3.76609 99.2169 2.25516Z" fill="#27A5EF"/>
</svg>